<mxfile host="65bd71144e">
    <diagram id="fLNG6U10Jc3AvwP7Pfjn" name="Page-1">
        <mxGraphModel dx="501" dy="-288" grid="0" gridSize="10" guides="1" tooltips="1" connect="1" arrows="1" fold="1" page="0" pageScale="1" pageWidth="827" pageHeight="1169" background="none" math="0" shadow="0">
            <root>
                <mxCell id="0"/>
                <mxCell id="1" parent="0"/>
                <mxCell id="5lTu8dcaC-K2s0UTSZmU-24" style="edgeStyle=orthogonalEdgeStyle;html=1;exitX=0.75;exitY=1;exitDx=0;exitDy=0;entryX=1;entryY=0.5;entryDx=0;entryDy=0;entryPerimeter=0;strokeColor=default;endArrow=none;endFill=0;" edge="1" parent="1" source="5lTu8dcaC-K2s0UTSZmU-1" target="5lTu8dcaC-K2s0UTSZmU-23">
                    <mxGeometry relative="1" as="geometry"/>
                </mxCell>
                <mxCell id="Dqz88kb-FHzcmxErnvod-14" style="edgeStyle=orthogonalEdgeStyle;html=1;dashed=1;endArrow=open;endFill=0;entryX=1;entryY=0.5;entryDx=0;entryDy=0;" edge="1" parent="1" source="5lTu8dcaC-K2s0UTSZmU-1" target="8">
                    <mxGeometry relative="1" as="geometry">
                        <mxPoint x="2411" y="2480" as="targetPoint"/>
                        <Array as="points">
                            <mxPoint x="2370" y="1758"/>
                            <mxPoint x="2370" y="2593"/>
                        </Array>
                    </mxGeometry>
                </mxCell>
                <mxCell id="5lTu8dcaC-K2s0UTSZmU-1" value="Core" style="html=1;dropTarget=0;" vertex="1" parent="1">
                    <mxGeometry x="1552.5" y="1713" width="399" height="90" as="geometry"/>
                </mxCell>
                <mxCell id="5lTu8dcaC-K2s0UTSZmU-2" value="" style="shape=module;jettyWidth=8;jettyHeight=4;" vertex="1" parent="5lTu8dcaC-K2s0UTSZmU-1">
                    <mxGeometry x="1" width="20" height="20" relative="1" as="geometry">
                        <mxPoint x="-27" y="7" as="offset"/>
                    </mxGeometry>
                </mxCell>
                <mxCell id="Dqz88kb-FHzcmxErnvod-9" style="edgeStyle=none;html=1;entryX=0.5;entryY=0;entryDx=0;entryDy=0;dashed=1;endArrow=open;endFill=0;" edge="1" parent="1" source="5lTu8dcaC-K2s0UTSZmU-3" target="8">
                    <mxGeometry relative="1" as="geometry"/>
                </mxCell>
                <mxCell id="5lTu8dcaC-K2s0UTSZmU-3" value="&amp;lt;&amp;lt;component&amp;gt;&amp;gt;&lt;br&gt;Player" style="html=1;dropTarget=0;" vertex="1" parent="1">
                    <mxGeometry x="1662" y="2148" width="180" height="90" as="geometry"/>
                </mxCell>
                <mxCell id="5lTu8dcaC-K2s0UTSZmU-4" value="" style="shape=module;jettyWidth=8;jettyHeight=4;" vertex="1" parent="5lTu8dcaC-K2s0UTSZmU-3">
                    <mxGeometry x="1" width="20" height="20" relative="1" as="geometry">
                        <mxPoint x="-27" y="7" as="offset"/>
                    </mxGeometry>
                </mxCell>
                <mxCell id="5lTu8dcaC-K2s0UTSZmU-7" style="edgeStyle=none;html=1;exitX=1;exitY=0.5;exitDx=0;exitDy=0;exitPerimeter=0;entryX=0.5;entryY=1;entryDx=0;entryDy=0;endArrow=none;endFill=0;" edge="1" parent="1" source="Dqz88kb-FHzcmxErnvod-2" target="5lTu8dcaC-K2s0UTSZmU-1">
                    <mxGeometry relative="1" as="geometry"/>
                </mxCell>
                <mxCell id="5lTu8dcaC-K2s0UTSZmU-8" style="edgeStyle=none;html=1;exitX=0;exitY=0.5;exitDx=0;exitDy=0;exitPerimeter=0;entryX=0.5;entryY=0;entryDx=0;entryDy=0;endArrow=none;endFill=0;jumpStyle=arc;jumpSize=10;" edge="1" parent="1" source="Dqz88kb-FHzcmxErnvod-2" target="5lTu8dcaC-K2s0UTSZmU-3">
                    <mxGeometry relative="1" as="geometry"/>
                </mxCell>
                <mxCell id="5lTu8dcaC-K2s0UTSZmU-18" style="edgeStyle=orthogonalEdgeStyle;html=1;exitX=0;exitY=0.5;exitDx=0;exitDy=0;exitPerimeter=0;entryX=0.5;entryY=0;entryDx=0;entryDy=0;endArrow=none;endFill=0;jumpStyle=arc;jumpSize=10;" edge="1" parent="1" source="Dqz88kb-FHzcmxErnvod-2" target="5lTu8dcaC-K2s0UTSZmU-11">
                    <mxGeometry relative="1" as="geometry">
                        <Array as="points">
                            <mxPoint x="1752" y="2090"/>
                            <mxPoint x="1988" y="2090"/>
                        </Array>
                    </mxGeometry>
                </mxCell>
                <mxCell id="5lTu8dcaC-K2s0UTSZmU-19" style="edgeStyle=orthogonalEdgeStyle;html=1;exitX=0;exitY=0.5;exitDx=0;exitDy=0;exitPerimeter=0;entryX=0.5;entryY=0;entryDx=0;entryDy=0;endArrow=none;endFill=0;jumpStyle=arc;jumpSize=10;" edge="1" parent="1" source="Dqz88kb-FHzcmxErnvod-2" target="5lTu8dcaC-K2s0UTSZmU-15">
                    <mxGeometry relative="1" as="geometry">
                        <Array as="points">
                            <mxPoint x="1752" y="2090"/>
                            <mxPoint x="1280" y="2090"/>
                        </Array>
                    </mxGeometry>
                </mxCell>
                <mxCell id="5lTu8dcaC-K2s0UTSZmU-20" style="edgeStyle=orthogonalEdgeStyle;html=1;exitX=0;exitY=0.5;exitDx=0;exitDy=0;exitPerimeter=0;entryX=1;entryY=0.567;entryDx=0;entryDy=0;entryPerimeter=0;strokeColor=default;endArrow=none;endFill=0;jumpStyle=arc;jumpSize=10;" edge="1" parent="1" source="Dqz88kb-FHzcmxErnvod-7" target="5">
                    <mxGeometry relative="1" as="geometry">
                        <Array as="points">
                            <mxPoint x="1652" y="1968"/>
                        </Array>
                        <mxPoint x="1390" y="1960" as="targetPoint"/>
                    </mxGeometry>
                </mxCell>
                <mxCell id="5lTu8dcaC-K2s0UTSZmU-21" style="edgeStyle=orthogonalEdgeStyle;html=1;exitX=0;exitY=0.5;exitDx=0;exitDy=0;exitPerimeter=0;entryX=0.5;entryY=0;entryDx=0;entryDy=0;endArrow=none;endFill=0;jumpStyle=arc;jumpSize=10;" edge="1" parent="1" source="Dqz88kb-FHzcmxErnvod-2" target="5lTu8dcaC-K2s0UTSZmU-13">
                    <mxGeometry relative="1" as="geometry">
                        <Array as="points">
                            <mxPoint x="1752" y="2090"/>
                            <mxPoint x="2224" y="2090"/>
                        </Array>
                    </mxGeometry>
                </mxCell>
                <mxCell id="Dqz88kb-FHzcmxErnvod-2" value="" style="shape=providedRequiredInterface;html=1;verticalLabelPosition=bottom;rotation=-90;" vertex="1" parent="1">
                    <mxGeometry x="1742" y="1860" width="20" height="20" as="geometry"/>
                </mxCell>
                <mxCell id="Dqz88kb-FHzcmxErnvod-6" style="edgeStyle=orthogonalEdgeStyle;html=1;entryX=0;entryY=0.5;entryDx=0;entryDy=0;entryPerimeter=0;endArrow=none;endFill=0;jumpStyle=arc;jumpSize=10;" edge="1" parent="1" source="5lTu8dcaC-K2s0UTSZmU-9" target="Dqz88kb-FHzcmxErnvod-2">
                    <mxGeometry relative="1" as="geometry">
                        <Array as="points">
                            <mxPoint x="1516" y="2090"/>
                            <mxPoint x="1752" y="2090"/>
                        </Array>
                    </mxGeometry>
                </mxCell>
                <mxCell id="Dqz88kb-FHzcmxErnvod-10" style="edgeStyle=orthogonalEdgeStyle;html=1;entryX=0.5;entryY=0;entryDx=0;entryDy=0;dashed=1;endArrow=open;endFill=0;" edge="1" parent="1" source="5lTu8dcaC-K2s0UTSZmU-9" target="8">
                    <mxGeometry relative="1" as="geometry">
                        <Array as="points">
                            <mxPoint x="1516" y="2316"/>
                            <mxPoint x="1754" y="2316"/>
                        </Array>
                    </mxGeometry>
                </mxCell>
                <mxCell id="5lTu8dcaC-K2s0UTSZmU-9" value="&amp;lt;&amp;lt;component&amp;gt;&amp;gt;&lt;br&gt;Heart" style="html=1;dropTarget=0;" vertex="1" parent="1">
                    <mxGeometry x="1426" y="2148" width="180" height="90" as="geometry"/>
                </mxCell>
                <mxCell id="5lTu8dcaC-K2s0UTSZmU-10" value="" style="shape=module;jettyWidth=8;jettyHeight=4;" vertex="1" parent="5lTu8dcaC-K2s0UTSZmU-9">
                    <mxGeometry x="1" width="20" height="20" relative="1" as="geometry">
                        <mxPoint x="-27" y="7" as="offset"/>
                    </mxGeometry>
                </mxCell>
                <mxCell id="Dqz88kb-FHzcmxErnvod-11" style="edgeStyle=orthogonalEdgeStyle;html=1;dashed=1;endArrow=open;endFill=0;entryX=0.5;entryY=0;entryDx=0;entryDy=0;" edge="1" parent="1" source="5lTu8dcaC-K2s0UTSZmU-11" target="8">
                    <mxGeometry relative="1" as="geometry">
                        <mxPoint x="1833.896551724138" y="2397.965500404095" as="targetPoint"/>
                        <Array as="points">
                            <mxPoint x="1988" y="2316"/>
                            <mxPoint x="1754" y="2316"/>
                        </Array>
                    </mxGeometry>
                </mxCell>
                <mxCell id="5lTu8dcaC-K2s0UTSZmU-11" value="&amp;lt;&amp;lt;component&amp;gt;&amp;gt;&lt;br&gt;Map" style="html=1;dropTarget=0;" vertex="1" parent="1">
                    <mxGeometry x="1898" y="2148" width="180" height="90" as="geometry"/>
                </mxCell>
                <mxCell id="5lTu8dcaC-K2s0UTSZmU-12" value="" style="shape=module;jettyWidth=8;jettyHeight=4;" vertex="1" parent="5lTu8dcaC-K2s0UTSZmU-11">
                    <mxGeometry x="1" width="20" height="20" relative="1" as="geometry">
                        <mxPoint x="-27" y="7" as="offset"/>
                    </mxGeometry>
                </mxCell>
                <mxCell id="Dqz88kb-FHzcmxErnvod-12" style="edgeStyle=orthogonalEdgeStyle;html=1;entryX=0.5;entryY=0;entryDx=0;entryDy=0;dashed=1;endArrow=open;endFill=0;" edge="1" parent="1" source="5lTu8dcaC-K2s0UTSZmU-13" target="8">
                    <mxGeometry relative="1" as="geometry">
                        <Array as="points">
                            <mxPoint x="2224" y="2316"/>
                            <mxPoint x="1754" y="2316"/>
                        </Array>
                    </mxGeometry>
                </mxCell>
                <mxCell id="5lTu8dcaC-K2s0UTSZmU-13" value="&amp;lt;&amp;lt;component&amp;gt;&amp;gt;&lt;br&gt;Sword" style="html=1;dropTarget=0;" vertex="1" parent="1">
                    <mxGeometry x="2134" y="2148" width="180" height="90" as="geometry"/>
                </mxCell>
                <mxCell id="5lTu8dcaC-K2s0UTSZmU-14" value="" style="shape=module;jettyWidth=8;jettyHeight=4;" vertex="1" parent="5lTu8dcaC-K2s0UTSZmU-13">
                    <mxGeometry x="1" width="20" height="20" relative="1" as="geometry">
                        <mxPoint x="-27" y="7" as="offset"/>
                    </mxGeometry>
                </mxCell>
                <mxCell id="Dqz88kb-FHzcmxErnvod-5" value="Processing service" style="text;html=1;strokeColor=none;fillColor=none;align=center;verticalAlign=middle;whiteSpace=wrap;rounded=0;" vertex="1" parent="1">
                    <mxGeometry x="1662" y="1850.5" width="74" height="39" as="geometry"/>
                </mxCell>
                <mxCell id="Dqz88kb-FHzcmxErnvod-13" style="edgeStyle=orthogonalEdgeStyle;html=1;entryX=0.5;entryY=0;entryDx=0;entryDy=0;dashed=1;endArrow=open;endFill=0;" edge="1" parent="1" source="5lTu8dcaC-K2s0UTSZmU-15" target="8">
                    <mxGeometry relative="1" as="geometry">
                        <Array as="points">
                            <mxPoint x="1280" y="2316"/>
                            <mxPoint x="1754" y="2316"/>
                        </Array>
                    </mxGeometry>
                </mxCell>
                <mxCell id="5lTu8dcaC-K2s0UTSZmU-15" value="&amp;lt;&amp;lt;component&amp;gt;&amp;gt;&lt;br&gt;Enemy" style="html=1;dropTarget=0;" vertex="1" parent="1">
                    <mxGeometry x="1190" y="2148" width="180" height="90" as="geometry"/>
                </mxCell>
                <mxCell id="5lTu8dcaC-K2s0UTSZmU-16" value="" style="shape=module;jettyWidth=8;jettyHeight=4;" vertex="1" parent="5lTu8dcaC-K2s0UTSZmU-15">
                    <mxGeometry x="1" width="20" height="20" relative="1" as="geometry">
                        <mxPoint x="-27" y="7" as="offset"/>
                    </mxGeometry>
                </mxCell>
                <mxCell id="Dqz88kb-FHzcmxErnvod-15" style="edgeStyle=orthogonalEdgeStyle;html=1;exitX=0;exitY=0.5;exitDx=0;exitDy=0;entryX=0;entryY=0.5;entryDx=0;entryDy=0;dashed=1;endArrow=open;endFill=0;" edge="1" parent="1" source="5" target="8">
                    <mxGeometry relative="1" as="geometry">
                        <Array as="points">
                            <mxPoint x="1072" y="1962"/>
                            <mxPoint x="1072" y="2593"/>
                        </Array>
                    </mxGeometry>
                </mxCell>
                <mxCell id="5" value="&amp;lt;&amp;lt;component&amp;gt;&amp;gt;&lt;br&gt;Collision" style="html=1;dropTarget=0;" vertex="1" parent="1">
                    <mxGeometry x="1190" y="1917" width="180" height="90" as="geometry"/>
                </mxCell>
                <mxCell id="6" value="" style="shape=module;jettyWidth=8;jettyHeight=4;" vertex="1" parent="5">
                    <mxGeometry x="1" width="20" height="20" relative="1" as="geometry">
                        <mxPoint x="-27" y="7" as="offset"/>
                    </mxGeometry>
                </mxCell>
                <mxCell id="s5my0ecmpizXD4HZRtwD-12" style="edgeStyle=none;html=1;entryX=0.25;entryY=1;entryDx=0;entryDy=0;endArrow=none;endFill=0;" edge="1" parent="1" source="Dqz88kb-FHzcmxErnvod-7" target="5lTu8dcaC-K2s0UTSZmU-1">
                    <mxGeometry relative="1" as="geometry"/>
                </mxCell>
                <mxCell id="Dqz88kb-FHzcmxErnvod-7" value="" style="shape=providedRequiredInterface;html=1;verticalLabelPosition=bottom;rotation=-90;" vertex="1" parent="1">
                    <mxGeometry x="1642" y="1860" width="20" height="20" as="geometry"/>
                </mxCell>
                <mxCell id="Dqz88kb-FHzcmxErnvod-8" value="Post&lt;br&gt;Processing service" style="text;html=1;strokeColor=none;fillColor=none;align=center;verticalAlign=middle;whiteSpace=wrap;rounded=0;" vertex="1" parent="1">
                    <mxGeometry x="1552.5" y="1847" width="81" height="46" as="geometry"/>
                </mxCell>
                <mxCell id="5lTu8dcaC-K2s0UTSZmU-26" style="edgeStyle=orthogonalEdgeStyle;html=1;exitX=0;exitY=0.5;exitDx=0;exitDy=0;exitPerimeter=0;entryX=0.75;entryY=0;entryDx=0;entryDy=0;strokeColor=default;endArrow=none;endFill=0;jumpStyle=arc;jumpSize=10;" edge="1" parent="1" source="5lTu8dcaC-K2s0UTSZmU-23" target="5lTu8dcaC-K2s0UTSZmU-15">
                    <mxGeometry relative="1" as="geometry">
                        <Array as="points">
                            <mxPoint x="1852" y="2050"/>
                            <mxPoint x="1325" y="2050"/>
                        </Array>
                    </mxGeometry>
                </mxCell>
                <mxCell id="5lTu8dcaC-K2s0UTSZmU-28" style="edgeStyle=orthogonalEdgeStyle;html=1;exitX=0;exitY=0.5;exitDx=0;exitDy=0;exitPerimeter=0;entryX=0.75;entryY=0;entryDx=0;entryDy=0;strokeColor=default;endArrow=none;endFill=0;jumpStyle=arc;jumpSize=10;" edge="1" parent="1" source="5lTu8dcaC-K2s0UTSZmU-23" target="5lTu8dcaC-K2s0UTSZmU-11">
                    <mxGeometry relative="1" as="geometry">
                        <Array as="points">
                            <mxPoint x="1852" y="2050"/>
                            <mxPoint x="2033" y="2050"/>
                        </Array>
                    </mxGeometry>
                </mxCell>
                <mxCell id="5lTu8dcaC-K2s0UTSZmU-29" style="edgeStyle=orthogonalEdgeStyle;html=1;exitX=0;exitY=0.5;exitDx=0;exitDy=0;exitPerimeter=0;entryX=0.75;entryY=0;entryDx=0;entryDy=0;strokeColor=default;endArrow=none;endFill=0;" edge="1" parent="1" source="5lTu8dcaC-K2s0UTSZmU-23" target="5lTu8dcaC-K2s0UTSZmU-13">
                    <mxGeometry relative="1" as="geometry">
                        <Array as="points">
                            <mxPoint x="1852" y="2050"/>
                            <mxPoint x="2269" y="2050"/>
                        </Array>
                    </mxGeometry>
                </mxCell>
                <mxCell id="5lTu8dcaC-K2s0UTSZmU-30" style="edgeStyle=orthogonalEdgeStyle;html=1;exitX=0;exitY=0.5;exitDx=0;exitDy=0;exitPerimeter=0;entryX=0.75;entryY=0;entryDx=0;entryDy=0;strokeColor=default;endArrow=none;endFill=0;jumpStyle=arc;jumpSize=10;" edge="1" parent="1" source="5lTu8dcaC-K2s0UTSZmU-23" target="5lTu8dcaC-K2s0UTSZmU-3">
                    <mxGeometry relative="1" as="geometry">
                        <Array as="points">
                            <mxPoint x="1852" y="2050"/>
                            <mxPoint x="1797" y="2050"/>
                        </Array>
                    </mxGeometry>
                </mxCell>
                <mxCell id="5lTu8dcaC-K2s0UTSZmU-31" style="edgeStyle=orthogonalEdgeStyle;html=1;exitX=0;exitY=0.5;exitDx=0;exitDy=0;exitPerimeter=0;entryX=0.75;entryY=0;entryDx=0;entryDy=0;strokeColor=default;endArrow=none;endFill=0;jumpStyle=arc;jumpSize=10;" edge="1" parent="1" source="5lTu8dcaC-K2s0UTSZmU-23" target="5lTu8dcaC-K2s0UTSZmU-9">
                    <mxGeometry relative="1" as="geometry">
                        <Array as="points">
                            <mxPoint x="1852" y="2050"/>
                            <mxPoint x="1561" y="2050"/>
                        </Array>
                    </mxGeometry>
                </mxCell>
                <mxCell id="5lTu8dcaC-K2s0UTSZmU-23" value="" style="shape=providedRequiredInterface;html=1;verticalLabelPosition=bottom;rotation=-90;" vertex="1" parent="1">
                    <mxGeometry x="1842" y="1860" width="20" height="20" as="geometry"/>
                </mxCell>
                <mxCell id="5lTu8dcaC-K2s0UTSZmU-25" value="Plugin service" style="text;html=1;strokeColor=none;fillColor=none;align=center;verticalAlign=middle;whiteSpace=wrap;rounded=0;" vertex="1" parent="1">
                    <mxGeometry x="1766" y="1854" width="74" height="39" as="geometry"/>
                </mxCell>
                <mxCell id="8" value="&amp;lt;&amp;lt;component&amp;gt;&amp;gt;&lt;br&gt;&amp;lt;&amp;lt;library&amp;gt;&amp;gt;&lt;br&gt;Common" style="html=1;dropTarget=0;" vertex="1" parent="1">
                    <mxGeometry x="1664" y="2548" width="180" height="90" as="geometry"/>
                </mxCell>
                <mxCell id="9" value="" style="shape=module;jettyWidth=8;jettyHeight=4;" vertex="1" parent="8">
                    <mxGeometry x="1" width="20" height="20" relative="1" as="geometry">
                        <mxPoint x="-27" y="7" as="offset"/>
                    </mxGeometry>
                </mxCell>
                <mxCell id="Dqz88kb-FHzcmxErnvod-16" value="&amp;lt;&amp;lt;component&amp;gt;&amp;gt;&lt;br&gt;&amp;lt;&amp;lt;library&amp;gt;&amp;gt;&lt;br&gt;EnemyCommon" style="html=1;dropTarget=0;" vertex="1" parent="1">
                    <mxGeometry x="1190" y="2393" width="180" height="90" as="geometry"/>
                </mxCell>
                <mxCell id="Dqz88kb-FHzcmxErnvod-17" value="" style="shape=module;jettyWidth=8;jettyHeight=4;" vertex="1" parent="Dqz88kb-FHzcmxErnvod-16">
                    <mxGeometry x="1" width="20" height="20" relative="1" as="geometry">
                        <mxPoint x="-27" y="7" as="offset"/>
                    </mxGeometry>
                </mxCell>
            </root>
        </mxGraphModel>
    </diagram>
</mxfile>